<?xml version="1.0" standalone="no"?>
<!DOCTYPE svg PUBLIC "-//W3C//DTD SVG 20010904//EN"
 "http://www.w3.org/TR/2001/REC-SVG-20010904/DTD/svg10.dtd">
<svg version="1.0" xmlns="http://www.w3.org/2000/svg"
 width="100.000000pt" height="100.000000pt" viewBox="0 0 100.000000 100.000000"
 preserveAspectRatio="xMidYMid meet">

<g transform="translate(0.000000,100.000000) scale(0.100000,-0.100000)"
fill="#000000" stroke="none">
<path d="M475 984 c-10 -10 -13 -23 -9 -33 4 -9 9 -33 12 -53 3 -28 9 -38 22
-38 13 0 19 10 22 38 3 20 8 44 12 53 7 16 -16 49 -34 49 -5 0 -16 -7 -25 -16z"/>
<path d="M147 853 c-4 -3 -7 -17 -7 -30 0 -16 8 -27 27 -34 16 -6 36 -18 46
-26 25 -24 48 -1 24 24 -8 10 -20 30 -26 46 -7 19 -18 27 -34 27 -13 0 -27 -3
-30 -7z"/>
<path d="M789 833 c-6 -15 -18 -36 -26 -46 -24 -25 -1 -48 24 -24 10 8 31 20
46 26 23 9 28 16 25 39 -2 21 -9 28 -30 30 -23 3 -30 -2 -39 -25z"/>
<path d="M427 830 c-209 -53 -320 -275 -233 -467 76 -166 277 -245 437 -171
79 36 133 89 171 166 62 125 39 267 -61 375 -72 78 -214 122 -314 97z m179
-47 c67 -23 154 -110 177 -177 40 -117 14 -231 -72 -317 -86 -86 -200 -112
-317 -72 -67 23 -154 110 -177 177 -22 63 -22 149 0 212 22 64 110 154 173
177 60 21 155 21 216 0z"/>
<path d="M428 766 c-141 -38 -228 -178 -198 -320 40 -193 259 -284 423 -175
201 133 141 448 -94 498 -61 13 -71 13 -131 -3z m52 -66 c0 -33 3 -40 20 -40
17 0 20 7 20 40 0 47 12 50 76 21 56 -25 61 -38 30 -70 -20 -21 -23 -30 -14
-39 9 -9 18 -6 39 14 32 31 45 26 70 -30 29 -64 26 -76 -21 -76 -33 0 -40 -3
-40 -20 0 -17 7 -20 40 -20 47 0 50 -12 21 -76 -25 -56 -38 -61 -70 -30 -21
20 -30 23 -39 14 -9 -9 -6 -18 14 -39 31 -32 26 -45 -30 -70 -64 -29 -76 -26
-76 21 0 33 -3 40 -20 40 -17 0 -20 -7 -20 -40 0 -47 -12 -50 -76 -21 -56 25
-61 38 -30 70 20 21 23 30 14 39 -9 9 -18 6 -39 -14 -32 -31 -45 -26 -70 30
-29 64 -26 76 21 76 33 0 40 3 40 20 0 17 -7 20 -40 20 -47 0 -50 12 -21 76
25 56 38 61 70 30 21 -20 30 -23 39 -14 9 9 6 18 -14 39 -31 32 -26 45 30 70
64 29 76 26 76 -21z"/>
<path d="M462 633 c-13 -2 -38 -19 -56 -38 -57 -56 -57 -133 -1 -190 56 -56
134 -56 190 0 99 99 7 257 -133 228z m109 -62 c64 -65 20 -171 -71 -171 -58 0
-100 42 -100 100 0 33 6 48 29 71 23 23 38 29 71 29 33 0 48 -6 71 -29z"/>
<path d="M16 525 c-20 -21 -20 -29 0 -50 10 -10 23 -13 33 -9 9 4 33 9 54 12
27 3 37 9 37 22 0 13 -10 19 -37 22 -21 3 -45 8 -54 12 -10 4 -23 1 -33 -9z"/>
<path d="M940 530 c-8 -5 -30 -10 -47 -10 -26 0 -33 -4 -33 -19 0 -14 9 -20
38 -23 20 -3 44 -8 53 -12 16 -7 49 16 49 34 0 10 -29 40 -38 40 -4 0 -14 -5
-22 -10z"/>
<path d="M214 239 c-3 -6 -22 -18 -41 -25 -29 -12 -34 -19 -31 -42 2 -21 9
-28 30 -30 23 -3 30 2 39 25 6 15 17 36 26 45 8 9 12 22 8 27 -8 14 -22 14
-31 0z"/>
<path d="M755 239 c-4 -5 0 -18 8 -27 9 -9 20 -30 26 -45 9 -23 16 -28 39 -25
21 2 28 9 30 30 3 23 -2 30 -31 42 -19 7 -38 19 -41 25 -9 14 -23 14 -31 0z"/>
<path d="M478 103 c-3 -21 -8 -45 -12 -54 -7 -16 16 -49 34 -49 18 0 41 33 34
49 -4 9 -9 33 -12 54 -3 27 -9 37 -22 37 -13 0 -19 -10 -22 -37z"/>
</g>
</svg>
